<svg xmlns="http://www.w3.org/2000/svg" width="200" height="200" viewBox="0 0 200 200">
  <rect width="200" height="200" fill="#fdfdfd"/>
  
  <!-- Main logo paths simplified for BIMI compliance -->
  <path d="M190 108c-14 14-28 28-42 42-16 15-36 21-58 17-13-3-25-9-36-17-2-1-3-1-4 1-3 3-6 7-9 10-2 2-4 4-5 6 24 25 66 37 105 18 35-17 54-52 53-80l-4 3z" fill="#45ae50"/>
  
  <path d="M32 71c5-5 11-11 16-16 4-4 8-8 12-11 11-8 24-12 38-12 18 0 35 6 49 18 2 1 3 1 4-1 3-3 6-6 9-10 2-2 4-4 6-6-25-26-71-36-109-16-14 7-25 18-34 32-9 13-17 38-15 45 8-8 16-15 24-23z" fill="#45ae50"/>
  
  <path d="M11 121c19-19 38-37 56-56 11-11 24-16 40-14 9 1 22 8 27 15-2 1-4 3-6 5-3 3-7 7-10 10-1 1-2 1-3 0-12-8-24-7-34 3-20 20-39 40-59 60-1 1-2 2-3 3-5-6-8-12-9-19-1-2-1-4 1-7z" fill="#45ae50"/>
  
  <path d="M113 146c-17 4-32-3-46-13l1-2c5-5 10-10 15-15 1-1 2-1 3 0 10 8 22 7 31-2 18-18 36-36 54-54 3-3 6-6 10-10 1 1 2 2 2 3 4 6 7 12 8 19 0 1 0 3-1 4-19 20-39 40-60 58-5 4-11 8-17 12z" fill="#45ae50"/>
</svg>