<?xml version="1.0" encoding="UTF-8"?>
<svg xmlns="http://www.w3.org/2000/svg" xmlns:xlink="http://www.w3.org/1999/xlink" width="200px" height="200px" viewBox="0 0 200 200" version="1.1">
<g id="surface1">
<path style=" stroke:none;fill-rule:nonzero;fill:rgb(99.607843%,99.607843%,99.607843%);fill-opacity:1;" d="M 115.871094 200.527344 C 77.25 200.527344 38.890625 200.527344 0.527344 200.527344 C 0.527344 133.863281 0.527344 67.195312 0.527344 0.527344 C 67.195312 0.527344 133.863281 0.527344 200.527344 0.527344 C 200.527344 67.195312 200.527344 133.863281 200.527344 200.527344 C 172.398438 200.527344 144.269531 200.527344 115.871094 200.527344 M 189.804688 108.0625 C 175.714844 122.023438 161.832031 136.199219 147.484375 149.890625 C 131.269531 165.359375 111.894531 171.082031 89.78125 166.796875 C 76.367188 164.199219 64.453125 158.265625 53.730469 149.910156 C 52.027344 148.582031 51.046875 148.601562 49.640625 150.230469 C 46.703125 153.628906 43.582031 156.871094 40.535156 160.175781 C 38.824219 162.03125 37.105469 163.886719 35.410156 165.71875 C 59.121094 191.230469 101.195312 202.769531 140.367188 184.140625 C 175.414062 167.472656 193.945312 132.234375 193.417969 104.625 C 192.191406 105.785156 191.132812 106.785156 189.804688 108.0625 M 31.707031 70.597656 C 37.160156 65.332031 42.582031 60.035156 48.074219 54.8125 C 51.964844 51.109375 55.671875 47.132812 59.949219 43.933594 C 71.167969 35.535156 84.085938 31.640625 97.988281 31.410156 C 116.421875 31.101562 132.839844 36.785156 146.714844 49.144531 C 148.28125 50.535156 149.269531 50.492188 150.632812 49.003906 C 153.609375 45.757812 156.695312 42.609375 159.742188 39.425781 C 161.734375 37.347656 163.734375 35.277344 165.714844 33.222656 C 140.945312 7.066406 94.761719 -2.550781 56.644531 17.355469 C 42.265625 24.867188 30.992188 35.835938 22.097656 49.328125 C 13.558594 62.277344 5.246094 87.285156 7.394531 93.988281 C 15.445312 86.242188 23.445312 78.550781 31.707031 70.597656 M 10.875 121.53125 C 10.96875 123.414062 10.792969 125.355469 11.210938 127.160156 C 12.835938 134.167969 15.625 140.660156 20.316406 146.492188 C 21.265625 145.59375 22.046875 144.898438 22.78125 144.15625 C 42.398438 124.382812 62.011719 104.605469 81.625 84.828125 C 91.511719 74.855469 103.414062 73.535156 115.125 81.226562 C 116.441406 82.09375 117.207031 81.992188 118.265625 80.917969 C 121.722656 77.394531 125.21875 73.910156 128.796875 70.507812 C 130.5625 68.828125 132.535156 67.359375 134.289062 65.898438 C 129.226562 59.027344 116.816406 52.472656 107.609375 51.277344 C 91.753906 49.222656 78.597656 54.507812 67.398438 65.65625 C 48.722656 84.25 29.90625 102.703125 10.875 121.53125 M 112.722656 146.429688 C 119.316406 144.636719 125.078125 141.285156 130.179688 136.828125 C 151.175781 118.472656 170.792969 98.710938 189.695312 78.234375 C 190.445312 77.421875 190.882812 75.816406 190.6875 74.71875 C 189.410156 67.582031 186.488281 61.121094 182.15625 55.296875 C 181.699219 54.683594 181.328125 54.003906 180.808594 53.183594 C 177.296875 56.707031 174.328125 59.707031 171.339844 62.683594 C 153.476562 80.476562 135.699219 98.359375 117.699219 116.011719 C 108.464844 125.070312 96.453125 125.648438 86.28125 117.96875 C 84.933594 116.953125 84.144531 116.941406 82.964844 118.117188 C 77.96875 123.089844 72.890625 127.984375 67.855469 132.921875 C 67.566406 133.203125 67.402344 133.617188 67.039062 134.195312 C 80.742188 143.835938 95.066406 150.421875 112.722656 146.429688 Z M 112.722656 146.429688 "/>
<path style=" stroke:none;fill-rule:nonzero;fill:rgb(27.058825%,68.235296%,31.37255%);fill-opacity:1;" d="M 189.9375 107.925781 C 191.132812 106.785156 192.191406 105.785156 193.417969 104.625 C 193.945312 132.234375 175.414062 167.472656 140.367188 184.140625 C 101.195312 202.769531 59.121094 191.230469 35.410156 165.71875 C 37.105469 163.886719 38.824219 162.03125 40.535156 160.175781 C 43.582031 156.871094 46.703125 153.628906 49.640625 150.230469 C 51.046875 148.601562 52.027344 148.582031 53.730469 149.910156 C 64.453125 158.265625 76.367188 164.199219 89.78125 166.796875 C 111.894531 171.082031 131.269531 165.359375 147.484375 149.890625 C 161.832031 136.199219 175.714844 122.023438 189.9375 107.925781 Z M 189.9375 107.925781 "/>
<path style=" stroke:none;fill-rule:nonzero;fill:rgb(27.058825%,68.235296%,31.37255%);fill-opacity:1;" d="M 31.574219 70.726562 C 23.445312 78.550781 15.445312 86.242188 7.394531 93.988281 C 5.246094 87.285156 13.558594 62.277344 22.097656 49.328125 C 30.992188 35.835938 42.265625 24.867188 56.644531 17.355469 C 94.761719 -2.550781 140.945312 7.066406 165.714844 33.222656 C 163.734375 35.277344 161.734375 37.347656 159.742188 39.425781 C 156.695312 42.609375 153.609375 45.757812 150.632812 49.003906 C 149.269531 50.492188 148.28125 50.535156 146.714844 49.144531 C 132.839844 36.785156 116.421875 31.101562 97.988281 31.410156 C 84.085938 31.640625 71.167969 35.535156 59.949219 43.933594 C 55.671875 47.132812 51.964844 51.109375 48.074219 54.8125 C 42.582031 60.035156 37.160156 65.332031 31.574219 70.726562 Z M 31.574219 70.726562 "/>
<path style=" stroke:none;fill-rule:nonzero;fill:rgb(27.058825%,68.235296%,31.37255%);fill-opacity:1;" d="M 11.011719 121.375 C 29.90625 102.703125 48.722656 84.25 67.398438 65.65625 C 78.597656 54.507812 91.753906 49.222656 107.609375 51.277344 C 116.816406 52.472656 129.226562 59.027344 134.289062 65.898438 C 132.535156 67.359375 130.5625 68.828125 128.796875 70.507812 C 125.21875 73.910156 121.722656 77.394531 118.265625 80.917969 C 117.207031 81.992188 116.441406 82.09375 115.125 81.226562 C 103.414062 73.535156 91.511719 74.855469 81.625 84.828125 C 62.011719 104.605469 42.398438 124.382812 22.78125 144.15625 C 22.046875 144.898438 21.265625 145.59375 20.316406 146.492188 C 15.625 140.660156 12.835938 134.167969 11.210938 127.160156 C 10.792969 125.355469 10.96875 123.414062 11.011719 121.375 Z M 11.011719 121.375 "/>
<path style=" stroke:none;fill-rule:nonzero;fill:rgb(27.058825%,68.235296%,31.37255%);fill-opacity:1;" d="M 112.511719 146.472656 C 95.066406 150.421875 80.742188 143.835938 67.039062 134.195312 C 67.402344 133.617188 67.566406 133.203125 67.855469 132.921875 C 72.890625 127.984375 77.96875 123.089844 82.964844 118.117188 C 84.144531 116.941406 84.933594 116.953125 86.28125 117.96875 C 96.453125 125.648438 108.464844 125.070312 117.699219 116.011719 C 135.699219 98.359375 153.476562 80.476562 171.339844 62.683594 C 174.328125 59.707031 177.296875 56.707031 180.808594 53.183594 C 181.328125 54.003906 181.699219 54.683594 182.15625 55.296875 C 186.488281 61.121094 189.410156 67.582031 190.6875 74.71875 C 190.882812 75.816406 190.445312 77.421875 189.695312 78.234375 C 170.792969 98.710938 151.175781 118.472656 130.179688 136.828125 C 125.078125 141.285156 119.316406 144.636719 112.511719 146.472656 Z M 112.511719 146.472656 "/>
</g>
</svg>
